<?xml version="1.0" standalone="no"?>
<!DOCTYPE svg PUBLIC "-//W3C//DTD SVG 20010904//EN"
 "http://www.w3.org/TR/2001/REC-SVG-20010904/DTD/svg10.dtd">
<svg version="1.0" xmlns="http://www.w3.org/2000/svg"
 width="4167.000000pt" height="4167.000000pt" viewBox="0 0 4167.000000 4167.000000"
 preserveAspectRatio="xMidYMid meet">
<metadata>
Created by potrace 1.14, written by Peter Selinger 2001-2017
</metadata>
<g transform="translate(0.000000,4167.000000) scale(0.100000,-0.100000)"
fill="#000000" stroke="none">
<path d="M19990 41660 c-1649 -73 -3189 -313 -4725 -737 -3013 -832 -5809
-2344 -8179 -4424 -644 -565 -1350 -1271 -1915 -1915 -2820 -3214 -4574 -7179
-5045 -11404 -100 -893 -131 -1538 -123 -2538 5 -668 10 -802 48 -1332 253
-3574 1436 -7026 3432 -10020 1531 -2297 3499 -4266 5797 -5799 3095 -2065
6664 -3255 10380 -3460 607 -34 1633 -39 2150 -11 328 17 654 40 890 61 4499
398 8723 2243 12095 5283 354 319 982 938 1296 1276 1335 1440 2430 3004 3315
4735 1275 2494 2038 5263 2219 8055 30 471 36 635 42 1185 17 1640 -139 3165
-483 4725 -921 4172 -3105 7956 -6264 10855 -2820 2586 -6277 4342 -10005
5080 -1001 198 -1887 308 -3030 376 -235 14 -1630 20 -1895 9z m1425 -8469
c590 -72 1141 -235 1660 -491 499 -247 912 -542 1324 -948 284 -279 9613
-9785 9665 -9848 187 -227 284 -543 256 -835 -41 -431 -280 -782 -655 -965
-60 -29 -535 -190 -1415 -479 -2463 -810 -2468 -811 -2588 -870 -191 -92 -348
-202 -501 -349 -171 -167 -296 -340 -400 -557 -131 -272 -191 -540 -191 -846
0 -382 113 -753 324 -1066 31 -45 773 -982 1650 -2082 1747 -2190 1625 -2028
1681 -2238 72 -267 48 -528 -70 -775 -141 -294 -396 -521 -707 -630 -352 -124
-701 -81 -1013 126 -92 61 -308 273 -2835 2793 -2907 2899 -3069 3060 -3226
3239 -1081 1229 -1741 2731 -1908 4340 -35 333 -52 760 -37 910 21 197 95 403
201 561 190 279 527 477 865 508 64 5 598 -12 1855 -60 1296 -50 1783 -66
1832 -59 149 21 253 74 369 190 71 70 94 100 127 170 72 153 90 306 52 454
-23 92 -77 199 -134 263 -22 27 -844 950 -1825 2053 -1095 1230 -1846 2067
-1945 2165 -640 634 -1457 1046 -2346 1180 -307 47 -739 59 -1046 30 -644 -61
-1260 -264 -1811 -597 -288 -174 -522 -357 -770 -603 -207 -204 -3789 -4223
-3842 -4310 -61 -101 -83 -177 -88 -305 -6 -137 10 -219 62 -325 99 -201 273
-328 499 -365 33 -6 646 14 1726 56 921 36 1743 65 1825 66 171 1 276 -15 413
-63 375 -132 651 -432 760 -826 27 -98 27 -99 26 -428 -1 -424 -29 -738 -104
-1180 -225 -1315 -806 -2584 -1654 -3610 -272 -328 -27 -81 -3731 -3777 -1679
-1675 -2405 -2393 -2464 -2437 -45 -34 -129 -84 -185 -111 -324 -159 -676
-156 -1011 10 -484 238 -751 729 -670 1230 17 100 58 235 97 317 13 26 741
947 1617 2046 876 1099 1619 2037 1651 2085 146 219 252 490 296 758 25 148
25 458 1 599 -74 430 -252 781 -547 1076 -175 176 -384 318 -605 410 -55 23
-941 318 -1970 656 -1353 445 -1895 628 -1960 660 -587 293 -821 1008 -522
1598 65 129 139 218 387 470 135 138 2337 2379 4893 4980 2555 2602 4655 4737
4665 4745 11 8 71 59 133 114 147 127 337 269 519 389 693 453 1467 720 2325
802 215 21 799 13 1020 -14z"/>
</g>
</svg>
