<?xml version="1.0" encoding="UTF-8"?><svg id="Layer_1" xmlns="http://www.w3.org/2000/svg" viewBox="0 0 499.4 349.58"><defs><style>.cls-1{fill:#fff;}.cls-2{fill:red;}</style></defs><path class="cls-2" d="m488.96,54.59c-5.74-21.49-22.67-38.41-44.15-44.15C405.86,0,249.7,0,249.7,0c0,0-156.17,0-195.11,10.44-21.49,5.74-38.41,22.67-44.15,44.15C0,93.53,0,174.79,0,174.79c0,0,0,81.26,10.44,120.2,5.74,21.49,22.67,38.41,44.15,44.15,38.95,10.44,195.11,10.44,195.11,10.44,0,0,156.17,0,195.11-10.44,21.49-5.74,38.41-22.67,44.15-44.15,10.44-38.95,10.44-120.2,10.44-120.2,0,0,0-81.26-10.44-120.2Z"/><polygon class="cls-1" points="199.76 249.7 329.5 174.79 199.76 99.88 199.76 249.7"/></svg>