<?xml version="1.0" encoding="UTF-8"?>
<svg id="Layer_1" xmlns="http://www.w3.org/2000/svg" version="1.1" viewBox="0 0 24 24">
  <!-- Generator: Adobe Illustrator 29.0.1, SVG Export Plug-In . SVG Version: 2.1.0 Build 192)  -->
  <defs>
    <style>
      .st0, .st1 {
        fill: #2a3f26;
      }

      .st1 {
        display: none;
      }
    </style>
  </defs>
  <path class="st1" d="M12,24L1.3,13.3l2-2,8.7,8.7,8.7-8.7,2,2s-10.7,10.7-10.7,10.7ZM12,12.7L1.3,2,3.3,0l8.7,8.7L20.7,0l2,2s-10.7,10.7-10.7,10.7Z"/>
  <path class="st0" d="M10.9,23.6L1.8,14.4c-.6-.6-.6-1.5,0-2.1h0c.6-.6,1.5-.6,2.1,0l7.7,7.7c.2.2.5.2.7,0l7.7-7.7c.6-.6,1.5-.6,2.1,0h0c.6.6.6,1.5,0,2.1l-9.1,9.1c-.6.6-1.5.6-2.1,0ZM10.9,11.7L1.8,2.5c-.6-.6-.6-1.5,0-2.1h0c.6-.6,1.5-.6,2.1,0l7.7,7.7c.2.2.5.2.7,0L20.1.4c.6-.6,1.5-.6,2.1,0h0c.6.6.6,1.5,0,2.1l-9.1,9.1c-.6.6-1.5.6-2.1,0Z"/>
</svg>